<svg
    width="188" height="70" viewBox="0 0 188 70"
    xmlns="http://www.w3.org/2000/svg"
>
    <g id="svgGroup" stroke-linecap="round" fill-rule="evenodd"
        font-size="9pt"
        fill="#DDF2FD"
    >
        <path
            d="M 90.137 69.19 L 90.137 65.332 L 98.682 65.332 L 98.682 3.809 L 90.137 3.809 L 90.137 0 L 140.869 0 L 140.869 3.809 L 132.373 3.809 L 132.373 34.375 L 161.523 6.69 A 3.626 3.626 0 0 0 161.627 6.582 Q 161.768 6.429 161.81 6.337 A 0.286 0.286 0 0 0 161.816 6.323 A 0.594 0.594 0 0 0 161.846 6.222 Q 161.857 6.169 161.862 6.107 A 1.336 1.336 0 0 0 161.865 6.006 A 0.746 0.746 0 0 0 161.663 5.507 Q 161.383 5.187 160.718 4.932 A 9.674 9.674 0 0 0 159.778 4.63 Q 159.248 4.487 158.632 4.373 A 19.591 19.591 0 0 0 157.861 4.248 A 37.151 37.151 0 0 0 155.62 4 A 45.598 45.598 0 0 0 154.175 3.907 A 83.714 83.714 0 0 0 152.264 3.833 A 67.143 67.143 0 0 0 150.488 3.809 L 150.488 0 L 180.566 0 L 180.566 3.809 A 104.695 104.695 0 0 0 178.426 3.829 Q 176.752 3.864 175.439 3.955 Q 173.729 4.075 172.424 4.34 A 14.433 14.433 0 0 0 171.851 4.468 A 13.225 13.225 0 0 0 170.677 4.812 Q 169.929 5.071 169.336 5.396 A 9.172 9.172 0 0 0 167.764 6.492 A 10.606 10.606 0 0 0 167.383 6.836 L 157.617 16.114 L 180.811 65.332 L 187.012 65.332 L 187.012 69.19 L 141.357 69.19 L 141.357 65.332 L 146.191 65.332 L 134.57 38.086 L 132.373 40.186 L 132.373 65.332 L 137.207 65.332 L 137.207 69.19 L 90.137 69.19 Z M 0 69.19 L 0 65.332 L 8.545 65.332 L 8.545 3.809 L 0 3.809 L 0 0 L 56.299 0 A 50.002 50.002 0 0 1 62.007 0.309 Q 65.681 0.732 68.701 1.734 A 28.713 28.713 0 0 1 73.202 3.643 A 21.492 21.492 0 0 1 77.344 6.494 A 18.539 18.539 0 0 1 82.397 13.697 A 24.062 24.062 0 0 1 83.989 21.171 A 28.161 28.161 0 0 1 84.033 22.754 A 22.506 22.506 0 0 1 83.299 28.585 A 19.75 19.75 0 0 1 82.153 31.763 A 19.067 19.067 0 0 1 76.636 38.745 A 23.374 23.374 0 0 1 71.786 41.697 A 31.015 31.015 0 0 1 67.651 43.238 A 36.895 36.895 0 0 1 61.716 44.452 Q 58.823 44.813 55.581 44.824 A 60.274 60.274 0 0 1 55.371 44.824 L 42.236 44.824 L 42.236 65.332 L 50.732 65.332 L 50.732 69.19 L 0 69.19 Z M 42.236 3.516 L 42.236 41.309 A 10.361 10.361 0 0 0 44.555 41.061 A 7.804 7.804 0 0 0 47.07 40.015 A 9.198 9.198 0 0 0 49.736 37.352 A 11.343 11.343 0 0 0 50.317 36.377 A 15.785 15.785 0 0 0 51.392 33.802 Q 51.787 32.573 52.051 31.167 A 25.935 25.935 0 0 0 52.124 30.762 A 37.829 37.829 0 0 0 52.562 27.079 A 50.146 50.146 0 0 0 52.686 23.487 A 75.682 75.682 0 0 0 52.581 19.4 Q 52.475 17.443 52.261 15.733 A 40.158 40.158 0 0 0 52.1 14.575 A 28.497 28.497 0 0 0 51.567 11.926 Q 51.242 10.645 50.816 9.568 A 14.099 14.099 0 0 0 50.269 8.35 A 10.366 10.366 0 0 0 49.039 6.452 A 7.845 7.845 0 0 0 47.046 4.712 Q 45.068 3.516 42.236 3.516 Z"
        />
    </g>
</svg>